<svg xmlns="http://www.w3.org/2000/svg" width="700pt" height="700pt" viewBox="0 0 700 700"><path d="M585.2 365.12 538.72 221.2c15.68-12.879 25.762-32.48 25.762-54.32 0-39.199-31.922-71.121-71.68-71.121-26.32 0-49.84 14.559-62.16 35.84C417.201 100.24 385.841 78.4 349.443 78.4c-36.398 0-67.762 21.84-81.199 53.199-12.32-21.281-35.281-35.84-62.16-35.84-39.199 0-71.68 31.922-71.68 71.121 0 21.84 10.078 41.441 25.762 54.32l-45.363 143.92c0 .559-.559 1.68-.559 2.8 0 26.88 39.762 47.603 92.398 47.603 10.641 0 20.72-1.121 30.801-2.801l-2.8 8.398c0 .559-.559 1.68-.559 2.801-.004 31.918 50.957 57.68 115.92 57.68s115.92-25.762 115.92-58.238c0-1.12 0-1.68-.559-2.8l-2.8-8.399c10.078 1.68 20.16 2.8 30.8 2.8 52.642 0 92.399-20.16 92.399-47.601 0-.563 0-1.684-.563-2.242zm-91.84-252.56c30.238 0 54.879 24.078 54.879 54.32 0 18.48-9.52 34.719-24.078 44.801-2.238 1.68-4.48 2.8-6.719 3.922 0 0-.558 0-.558.558-14.56 6.72-32.48 6.72-47.04 0-.558 0-.558 0-1.12-.558-2.239-1.121-4.481-2.238-6.16-3.922-14.56-9.52-24.079-26.32-24.079-44.801.555-30.238 24.637-54.32 54.875-54.32zm-87.918 123.2c11.199-8.96 20.16-20.719 25.762-33.602 4.48 7.281 9.52 14 16.238 19.602l-23.52 72.801zM350.001 95.2c39.762 0 72.238 31.922 72.238 71.68 0 24.641-12.32 46.48-31.359 59.359-.559 0-.559.559-1.121.559-1.68 1.12-2.8 1.68-4.48 2.8-.56 0-1.122.559-1.68.559-1.68.559-2.801 1.68-4.48 2.238-.56 0-1.122.559-1.122.559-3.922 1.68-7.84 2.8-12.32 3.922-.558 0-1.121 0-1.68.558-1.68.559-3.359.559-5.039.559h-1.68c-2.238 0-4.48.559-6.718.559-2.239 0-4.48 0-6.719-.559h-1.68c-1.68 0-3.36-.559-5.039-.559-.558 0-1.12 0-1.68-.558-4.48-1.121-8.398-2.239-12.32-3.922-.558 0-.558-.559-1.12-.559-1.68-.558-3.36-1.68-5.04-2.238-.558 0-1.12-.559-1.12-.559-1.68-1.12-3.36-1.68-5.04-2.8 0 0-.558 0-.558-.559-19.04-12.879-31.922-34.719-31.922-59.359-.56-39.758 31.918-71.68 71.68-71.68zM275.521 294l-23.52-72.801c6.719-5.602 12.32-11.762 16.238-19.602 5.602 13.441 14.559 24.641 25.762 33.602zm-123.76-127.12c0-29.68 24.641-54.32 54.879-54.32s54.879 24.078 54.879 54.32c0 18.48-9.52 34.719-24.078 44.801-2.238 1.68-4.48 2.8-6.719 3.922 0 0-.558 0-.558.558-14.56 6.72-32.48 6.72-47.04 0-.558 0-.558 0-1.12-.558-2.239-1.121-4.481-2.238-6.72-3.922-14.003-10.078-23.522-26.32-23.522-44.801zm54.879 231.28c-42 0-73.922-15.121-75.602-29.68l44.238-138.32c.559 0 1.121.559 1.68.559 1.12.558 2.8 1.12 4.48 1.68.559.558 1.68.558 2.238 1.12l6.72 1.68h.558c5.039 1.121 10.64 1.68 15.68 1.68 5.601 0 10.64-.559 15.68-1.68h.558l6.72-1.68c1.12 0 1.679-.558 2.238-1.12 1.68-.56 2.8-1.122 4.48-1.68.559 0 1.121-.559 1.68-.559l29.12 90.719-23.52 72.801c-11.75 3.36-24.07 4.48-36.948 4.48zM350 464.801c-57.121 0-97.441-21.281-98.559-40.32l6.719-20.719 50.96-158.48c.56.559 1.68.559 2.24 1.121 2.237 1.121 3.921 1.68 6.16 2.8 1.12.56 1.679.56 2.8 1.122 2.8 1.121 5.602 1.68 8.398 2.238h.56c6.718 1.68 13.44 2.801 20.718 2.801 7.281 0 14-1.121 20.72-2.8h.558c2.8-.56 5.601-1.68 8.398-2.239 1.121-.559 1.68-.559 2.8-1.121 2.24-1.121 4.481-1.68 6.161-2.8.559-.56 1.68-.56 2.238-1.122l50.961 158.48 6.72 20.719c-1.11 19.039-41.43 40.32-98.552 40.32zm143.36-66.641c-12.879 0-25.762-1.68-36.961-4.48l-23.52-72.801L462 230.159c.559 0 1.121.56 1.68.56 1.12.558 2.8 1.12 4.48 1.679.559.558 1.68.558 2.239 1.12 2.238.56 4.48 1.122 6.718 1.68h.559c5.039 1.122 10.64 1.68 15.68 1.68 5.601 0 10.64-.558 15.68-1.68 2.238-.558 4.48-1.12 6.719-1.68.558 0 1.68-.558 2.238-1.12 1.68-.559 2.8-1.121 4.48-1.68.56 0 1.122-.558 1.68-.558l44.238 138.32c-1.11 14.559-33.03 29.68-75.03 29.68z" style="fill:#fff" transform="matrix(1.4655 0 0 1.4655 -162.93 -60.34)"/></svg>