<svg xmlns="http://www.w3.org/2000/svg" width="600" height="300" viewBox="0 0 158.75 79.375"><path d="M8.809 6.764h88.565v33.507H8.809z" style="fill:#000;fill-opacity:1;stroke:#000;stroke-width:1.811;stroke-linejoin:round"/><g aria-label="Score" style="font-size:42.3333px;font-family:Haettenschweiler;-inkscape-font-specification:&quot;Haettenschweiler, Normal&quot;;letter-spacing:1.32292px;fill:#fff;stroke-width:1.611;stroke-linejoin:round"><path d="M12.95 26.443h5.932v6.8q0 1.013 1.22 1.013 1.178 0 1.178-1.013V29.73q0-1.612-2.15-3.782-4.155-4.031-5.167-5.416-1.013-1.385-1.013-3.039v-3.328q0-5.767 7.524-5.767 6.738 0 6.738 5.25v5.127H21.28v-5.457q0-.889-.972-.889-1.136 0-1.136 1.716l.124 1.922q0 1.654 2.19 3.845 4.073 3.906 5.168 5.457 1.116 1.55 1.116 3.514v3.782q0 5.912-7.544 5.912-7.276 0-7.276-5.374zM44.204 24.934h-5.87v-5.891q0-1.179-1.014-1.179-1.033 0-1.033 1.179v14.696q0 1.22 1.033 1.22 1.013 0 1.013-1.22v-5.808h5.87v5.85q0 4.857-6.8 4.857-6.987 0-6.987-5.064V19.208q0-5.064 6.987-5.064 6.8 0 6.8 4.857zM46.705 33.574V19.208q0-5.064 7.007-5.064 2.708 0 4.754 1.178 2.067 1.178 2.067 3.68V33.78q0 4.857-6.821 4.857-7.007 0-7.007-5.064zm7.937.165V19.043q0-1.179-1.013-1.179-1.033 0-1.033 1.179v14.696q0 1.22 1.033 1.22 1.013 0 1.013-1.22zM77.008 24.252h-5.891v-5.21q0-1.095-1.013-1.095t-1.013 1.054v19.307H63.2V14.309h5.89v.806q1.18-.971 3.639-.971 1.757 0 3.018.95 1.26.93 1.26 2.46zM93.234 28.138h-7.917v5.601q0 1.22 1.034 1.22 1.013 0 1.013-1.22v-4.837h5.87v4.879q0 4.857-6.925 4.857-6.862 0-6.862-5.064V19.208q0-5.064 6.862-5.064 6.925 0 6.925 4.857zm-5.87-3.597v-5.498q0-1.179-1.013-1.179-1.034 0-1.034 1.179v5.498z"/></g><g style="display:inline"><path d="M35.099 22.922h88.565v33.507H35.099z" style="fill:#fff;fill-opacity:1;stroke:#fff;stroke-width:3.611;stroke-linejoin:round;stroke-dasharray:none" transform="rotate(-13.592 120.631 -64.49)"/><path d="M35.099 22.922h88.565v33.507H35.099z" style="fill:#fff;fill-opacity:1;stroke:#000;stroke-width:1.811;stroke-linejoin:round" transform="rotate(-13.592 120.631 -64.49)"/><g aria-label="Board" style="font-size:42.3333px;font-family:Haettenschweiler;-inkscape-font-specification:&quot;Haettenschweiler, Normal&quot;;letter-spacing:1.32292px;stroke-width:1.611;stroke-linejoin:round"><path d="m69.446 70.302-6.97-28.81 7.454-1.804q2.672-.646 4.937.103 2.26.729 2.907 3.4l.968 3.999q.734 3.034-2.662 5.174 4.131.021 4.904 3.216l1.351 5.585q.69 2.853-.833 4.731-1.508 1.854-4.08 2.476zm3.576-20.644-1.186-4.902q-.364-1.507-2.132-1.079l1.92 7.936q1.768-.428 1.398-1.955zM76.28 63.12l-1.764-7.293q-.365-1.507-2.133-1.079l2.499 10.327q1.768-.428 1.398-1.955zM85.069 61.652l-3.378-13.963q-1.191-4.923 5.62-6.57 2.631-.637 4.898.027 2.286.659 2.874 3.09L98.558 58.6q1.143 4.721-5.487 6.325-6.811 1.648-8.002-3.274zm7.754-1.706L89.367 45.66q-.277-1.145-1.262-.907-1.004.243-.727 1.389l3.456 14.284q.287 1.186 1.291.942.985-.238.698-1.423zM115.575 59.141l-5.063 1.225-.218-.904q-.347 1.381-3.38 2.115-4.682 1.133-5.566-2.524l-1.133-4.681q-.38-1.567.464-3.005.863-1.442 3.876-4.021 1.746-1.486 1.6-2.089l-.836-3.455q-.277-1.145-1.262-.907-1.125.272-.45 3.065.122.502.42 1.472.32.965.441 1.467l-5.525 1.337-1.128-4.661q-1.142-4.722 5.689-6.374 6.389-1.546 7.58 3.376zm-6.78-2.974-1.454-6.007q-1.852.958-1.541 2.244l1.026 4.24q.257 1.064 1.282.816.944-.228.686-1.293zM128.463 41.561l-5.726 1.386-1.225-5.063q-.258-1.065-1.242-.827t-.737 1.263l4.54 18.765-5.725 1.385-5.644-23.325 5.726-1.386.19.784q.916-1.221 3.307-1.8 1.708-.413 3.157.215 1.444.607 1.804 2.094zM147.52 51.412l-4.32 1.045-.672-.667q-1.199 1.46-3.067 1.912-2.19.53-3.985-.12-1.775-.655-2.203-2.423l-4.054-16.756q-.36-1.487.637-2.642 1.012-1.181 2.74-1.599 2.37-.574 3.744.008l-1.497-6.188 5.706-1.38zm-6.761-2.98-3.505-14.485q-.248-1.024-1.232-.786-1.005.243-.747 1.308l3.495 14.445q.258 1.065 1.262.822.985-.238.727-1.303z"/></g></g></svg>