<svg xmlns="http://www.w3.org/2000/svg" width="600" height="300" viewBox="0 0 158.75 79.375"><defs><mask id="a" maskUnits="userSpaceOnUse"><path d="M6.904 4.859H99.28v37.318H6.904Z" style="fill:#fff;fill-opacity:1"/><path d="M46.876 53.077h88.565v33.507H46.876z" style="display:inline;fill:#000;fill-opacity:1;stroke:#000;stroke-width:3.61101;stroke-linejoin:round;stroke-dasharray:none;stroke-opacity:1" transform="rotate(-13.592)"/></mask></defs><g mask="url(#a)"><path d="M8.809 6.764h88.565v33.507H8.809z" style="display:inline;fill:none;fill-opacity:1;stroke:#fff;stroke-width:1.811;stroke-linejoin:round"/><path d="M8.81 6.764v33.507h88.564V6.764Zm11.664 1.633c4.492 0 6.738 1.75 6.738 5.25v5.127H21.28v-5.457c0-.593-.324-.889-.972-.889-.758 0-1.137.572-1.137 1.716l.124 1.922c0 1.103.73 2.384 2.192 3.845 2.714 2.604 4.437 4.423 5.167 5.457.744 1.033 1.116 2.205 1.116 3.514v3.783c0 3.94-2.515 5.911-7.544 5.911-4.851 0-7.276-1.791-7.276-5.374v-6.76h5.932v6.801c0 .676.407 1.013 1.22 1.013.785 0 1.178-.337 1.178-1.013V29.73c0-1.074-.717-2.335-2.15-3.782-2.77-2.687-4.492-4.493-5.168-5.416-.675-.923-1.012-1.936-1.012-3.039v-3.327c0-3.845 2.508-5.768 7.524-5.768zm16.929 5.747c4.534 0 6.8 1.619 6.8 4.857v5.933h-5.87v-5.891c0-.786-.338-1.178-1.013-1.178-.689 0-1.033.392-1.033 1.178V33.74c0 .813.344 1.22 1.033 1.22.675 0 1.013-.407 1.013-1.22V27.93h5.87v5.85c0 3.238-2.266 4.857-6.8 4.857-4.658 0-6.987-1.688-6.987-5.064V19.208c0-3.376 2.33-5.064 6.987-5.064zm16.309 0c1.805 0 3.39.393 4.754 1.178 1.378.786 2.067 2.012 2.067 3.68V33.78c0 3.238-2.274 4.857-6.821 4.857-4.672 0-7.007-1.688-7.007-5.064V19.208c0-3.376 2.335-5.064 7.007-5.064zm19.017 0c1.171 0 2.177.317 3.018.95.84.62 1.26 1.44 1.26 2.46v6.698h-5.89v-5.21c0-.73-.338-1.095-1.013-1.095-.676 0-1.013.352-1.013 1.054v19.307H63.2V14.309h5.89v.806c.786-.647 1.999-.971 3.639-.971zm13.58 0c4.617 0 6.925 1.619 6.925 4.857v9.137h-7.917v5.602c0 .813.345 1.22 1.034 1.22.675 0 1.013-.407 1.013-1.22v-4.837h5.87v4.878c0 3.238-2.308 4.857-6.925 4.857-4.575 0-6.862-1.688-6.862-5.064V19.208c0-3.376 2.287-5.064 6.862-5.064zm-32.68 3.72c-.689 0-1.033.393-1.033 1.179V33.74c0 .813.344 1.22 1.033 1.22.676 0 1.013-.407 1.013-1.22V19.043c0-.786-.337-1.178-1.013-1.178zm32.722 0c-.69 0-1.034.393-1.034 1.179v5.498h2.047v-5.498c0-.786-.338-1.178-1.013-1.178z" style="display:inline;fill:#fff;fill-opacity:1;stroke:none;stroke-width:1.811;stroke-linejoin:round"/></g><path d="M46.876 53.077h88.565v33.507H46.876z" style="fill:none;fill-opacity:1;stroke:#fff;stroke-width:1.811;stroke-linejoin:round" transform="rotate(-13.592)"/><g aria-label="Board" style="font-size:42.3333px;font-family:Haettenschweiler;-inkscape-font-specification:&quot;Haettenschweiler, Normal&quot;;letter-spacing:1.32292px;stroke-width:1.611;stroke-linejoin:round;fill:#fff"><path d="M50.967 84.661V55.02h7.668q2.75 0 4.775 1.26 2.026 1.241 2.026 3.99v4.114q0 3.12-3.803 4.402 4.01.993 4.01 4.28v5.746q0 2.935-1.923 4.402-1.901 1.447-4.547 1.447zm8.33-19.223v-5.044q0-1.55-1.82-1.55v8.165q1.82 0 1.82-1.571zm0 13.85v-7.504q0-1.55-1.82-1.55v10.624q1.82 0 1.82-1.57zM68.185 79.928V65.562q0-5.064 7.008-5.064 2.707 0 4.754 1.178 2.067 1.178 2.067 3.68v14.779q0 4.857-6.821 4.857-7.008 0-7.008-5.064zm7.938.165V65.396q0-1.178-1.013-1.178-1.034 0-1.034 1.178v14.697q0 1.22 1.034 1.22 1.013 0 1.013-1.22zM98.426 84.661h-5.209v-.93q-.661 1.261-3.782 1.261-4.817 0-4.817-3.762v-4.816q0-1.612 1.158-2.811 1.178-1.2 4.713-2.998 2.046-1.033 2.046-1.653v-3.556q0-1.178-1.013-1.178-1.157 0-1.157 2.873 0 .517.062 1.53.082 1.013.082 1.53h-5.684v-4.796q0-4.857 7.028-4.857 6.573 0 6.573 5.064zm-5.89-4.485v-6.18q-2.027.495-2.027 1.818v4.362q0 1.095 1.055 1.095.971 0 .971-1.095zM115.087 70.605h-5.891v-5.209q0-1.095-1.013-1.095t-1.013 1.054v19.306h-5.891V60.663h5.89v.806q1.18-.971 3.639-.971 1.757 0 3.018.95 1.26.93 1.26 2.46zM131.292 84.661h-4.444l-.496-.806q-1.509 1.137-3.431 1.137-2.253 0-3.845-1.054-1.57-1.054-1.57-2.873v-17.24q0-1.53 1.24-2.418 1.26-.91 3.038-.91 2.44 0 3.638.89V55.02h5.87zm-5.87-4.485V65.272q0-1.054-1.013-1.054-1.033 0-1.033 1.096v14.862q0 1.095 1.033 1.095 1.013 0 1.013-1.095z" style="fill:#fff" transform="rotate(-13.601)"/></g></svg>