<svg xmlns="http://www.w3.org/2000/svg" width="700pt" height="700pt" viewBox="0 0 700 700"><path d="m673.498 342.689-53.105-63.111 17.7-43.87c13.082-31.556-2.309-67.728-33.864-80.037L378.733 62.55c-8.466-24.63-31.556-42.33-58.49-42.33H73.969c-33.864 0-61.57 27.705-61.57 61.57v369.413c0 33.864 27.706 61.57 61.57 61.57h100.05L294.846 658.23c10.774 12.315 25.397 20.009 41.556 21.55h5.39c14.624 0 28.474-4.617 39.249-14.624l60.03-50.022c7.698 0 16.164-1.541 23.856-4.617 15.39-6.158 26.94-18.472 33.09-33.864l5.39-13.85 162.388-133.914c12.315-10.775 20.009-25.397 21.55-41.557 1.535-16.164-3.85-32.327-13.856-44.642zm-290.913-29.241 32.323-18.472 15.391 53.871-46.946 26.94v-62.338zM74.74 482.762c-16.931 0-30.781-13.85-30.781-30.782V82.567c0-16.931 13.85-30.782 30.781-30.782h246.276c16.931 0 30.782 13.85 30.782 30.782V451.98c0 16.932-13.85 30.782-30.782 30.782zm287.065 159.31c-6.157 5.39-14.624 7.698-22.316 6.925-8.466-.768-15.39-4.617-20.78-10.775l-86.196-103.126L405.676 605.9Zm108.517-76.962a30.48 30.48 0 0 1-16.932 16.932c-3.849 1.54-7.698 2.308-12.315 2.308-3.849 0-7.698-.767-11.542-2.308L260.22 512.78h60.03c33.864 0 61.57-27.706 61.57-61.57v-39.25l73.111-42.33c6.158-3.849 9.234-10.774 6.926-17.7l-23.857-84.659c-1.54-4.617-4.617-8.466-9.234-10.007-4.616-1.54-9.233-1.54-13.85.768l-33.864 19.24-.005-180.089 210.873 85.427c15.391 6.158 23.09 24.63 16.932 40.021zM645.793 405.8l-116.21 96.97 77.73-191.633 42.33 50.796c5.39 6.158 7.698 14.624 6.925 22.316-.768 8.471-4.617 16.165-10.775 21.555zm-194.712 85.428-11.542 28.474c-2.308 6.157-8.465 9.234-14.623 9.234-1.541 0-3.85 0-6.158-.768-7.698-3.076-11.542-12.315-8.466-20.009l11.542-28.474c3.076-7.698 12.315-11.542 20.008-8.466 8.472 3.076 12.32 11.542 9.24 20.009zm-330.163-377.88v30.782c0 8.466-6.925 15.391-15.39 15.391-8.466 0-15.391-6.925-15.391-15.39v-30.782c0-8.466 6.925-15.391 15.39-15.391 8.461 0 15.391 6.925 15.391 15.39zm184.707 277.06v30.782c0 8.466-6.925 15.391-15.39 15.391-8.467 0-15.392-6.925-15.392-15.39v-30.782c0-8.466 6.926-15.391 15.391-15.391 8.466 0 15.391 6.925 15.391 15.39zm-76.961-186.245c-11.542-.768-22.316 2.308-31.555 7.698-9.234-5.39-20.009-8.466-31.556-7.698-19.24.768-35.405 12.315-42.33 30.782-6.925 18.472-3.076 38.48 10.774 52.33l52.331 53.105c3.076 3.076 6.925 4.617 10.774 4.617 3.85 0 8.466-1.541 10.775-4.617l52.33-53.105c13.85-13.85 17.7-33.864 10.775-52.33-6.915-17.7-23.079-29.247-42.32-30.782zm10.007 61.565-40.79 42.33-41.562-42.33c-7.698-7.699-4.616-16.932-3.849-19.24 1.541-3.077 5.39-10.775 14.624-10.775h1.541c6.925 0 13.083 2.308 17.7 7.698 6.157 6.158 16.164 6.158 22.316 0 4.616-4.616 10.774-7.698 17.7-7.698h.772c10.007.768 13.85 7.698 14.624 10.774 1.541 2.309 4.617 11.548-3.076 19.24z" style="stroke-width:1.37431;fill:#fff"/></svg>