<svg xmlns="http://www.w3.org/2000/svg" width="700pt" height="700pt" viewBox="0 0 700 700"><g style="fill:#fff"><path d="M365.07 365.07c-4.563 4.563-4.563 11.957 0 16.52 4.563 4.563 11.957 4.563 16.52 0l93.332-93.332a11.676 11.676 0 0 0 3.43-8.262c0-3.097-1.235-6.07-3.43-8.261l-93.332-93.332c-4.563-4.563-11.957-4.563-16.52 0-4.563 4.562-4.563 11.957 0 16.52l73.43 73.406H186.66c-6.445 0-11.668 5.226-11.668 11.668 0 6.441 5.223 11.668 11.668 11.668H438.5Z" style="fill:#fff" transform="translate(-151.913 -38.579) scale(1.38779)"/><path d="M536.67 35H303.33c-6.441 0-11.664 5.223-11.664 11.668v163.33c0 6.441 5.223 11.668 11.664 11.668 6.445 0 11.668-5.227 11.668-11.668V58.328h210v443.33h-210v-151.66c0-6.441-5.223-11.668-11.668-11.668-6.441 0-11.664 5.227-11.664 11.668v163.33a11.667 11.667 0 0 0 11.664 11.668h233.34a11.667 11.667 0 0 0 11.664-11.668V46.668A11.667 11.667 0 0 0 536.67 35Z" style="fill:#fff" transform="translate(-151.913 -38.579) scale(1.38779)"/></g></svg>