<svg xmlns="http://www.w3.org/2000/svg" width="700pt" height="700pt" viewBox="0 0 700 700"><g style="fill:#fff"><path d="M585.32 92.336c-.781-1.566-19.594-37.859-81.855-47.969-6.746-7.836-27.125-26.867-65.969-26.867-24.641 0-46.117 13.523-62.109 39.113a147.46 147.46 0 0 0-15.699 35.055c-6.883 6.902-33.176 34.125-65.188 78.188-33.727 46.41-80.238 120.94-110.32 212.41a8.75 8.75 0 0 0 4.398 10.559l7.168 3.586-79.734 87.703h.004a8.75 8.75 0 0 0 7.84 14.527c1.184-.187 20.848-3.379 52.355-13.379L158.117 530.5a8.75 8.75 0 0 0 8.125 12h78.75a8.75 8.75 0 0 0 7.93-5.05l30.625-65.614 26.656-7.617 11.543 30.777-37.504 22.5a8.751 8.751 0 0 0 9.004 15.008l39.629-23.777 10.082 5.043-6.219 3.73.004-.003c-4.144 2.488-5.488 7.863-3.004 12.004 2.489 4.144 7.864 5.488 12.004 3.004l15.77-9.461 2.067 1.035.004-.004a8.741 8.741 0 0 0 9.304-.938 8.74 8.74 0 0 0 3.14-8.804l9.349-5.61 30.703 15.352a8.75 8.75 0 0 0 11.68-3.941c2.148-4.297.43-9.527-3.852-11.707l-31.926-15.969-17.102-45.602 3.484-.875a8.75 8.75 0 0 0 6.368-6.367l20.78-83.145a667.082 667.082 0 0 0 38.16-35.29c.079-.077.153-.152.223-.234 3.063-3.296 74.844-81.348 63.957-134.48-2.941-14.352-11.28-25.566-24.84-33.43 3.61-10.43 12.316-31.355 28.781-48.69 9.48-1.63 42.656-6.563 62.918.19l.008.005a8.753 8.753 0 0 0 10.594-12.215zm-354.05 218.8c28.18-4.563 72.023-13.984 110.15-32.172l-24.719 39.555-.004.004a212.558 212.558 0 0 1-72.449 54.918 160.945 160.945 0 0 1-32.953 11.168l-8.082-4.04a699.472 699.472 0 0 1 28.055-69.433zm-16.797 90.703c13.539-2.691 66.184-16.172 113.29-69.375a655.7 655.7 0 0 0 86.406-7.148 662.017 662.017 0 0 1-192.75 124.65 571.326 571.326 0 0 1-73.758 25.367zm24.953 123.16h-60.254l18.855-47.141a637.863 637.863 0 0 0 29.566-11.512c14.984-6.266 31.934-14.055 50.211-23.59zm64.355-96.527a717.68 717.68 0 0 0 22.293-13.465l5.008 25.047-37.734 10.781zm70.461 66.523-13.492 8.094-21.266-10.633-12.398-33.062 30.711-8.266zm-5.21-64.715-21 5.25-6.157-30.789a682.767 682.767 0 0 0 40.973-29.707zm136.75-342.61a8.756 8.756 0 0 0-4.474 2.394c-27.645 27.645-36.922 63.79-37.297 65.316a8.75 8.75 0 0 0 4.934 10.117c12.402 5.512 19.527 13.523 21.777 24.484 6.945 33.855-33.164 88.727-54.531 113.36-35.043 7.918-74.82 10.461-96.418 11.277l35.145-56.23h.004a8.756 8.756 0 0 0-1.426-11.012 8.756 8.756 0 0 0-11.082-.746c-35.398 25.29-86.46 38.547-121.76 45.113l.004.004a808.181 808.181 0 0 1 67.742-111.25c35.727-49.23 64.891-77.68 65.18-77.957a8.806 8.806 0 0 0 2.403-4.156c.152-.629 16.539-63.379 61.512-63.379 38.09 0 53.375 21.496 53.969 22.355a8.75 8.75 0 0 0 6.043 3.805c28.34 4.047 46.406 13.852 57.379 22.62-23.785-1.081-47.738 3.614-49.105 3.888z" style="fill:#fff" transform="matrix(1.3176 0 0 1.3176 -111.144 -18.928)"/><path d="M463.75 78.75a8.75 8.75 0 1 1-17.501-.001 8.75 8.75 0 0 1 17.501.001" style="fill:#fff" transform="matrix(1.3176 0 0 1.3176 -111.144 -18.928)"/></g></svg>