<svg xmlns="http://www.w3.org/2000/svg" width="700pt" height="700pt" viewBox="0 0 700 700"><path d="M451.522 0c-40.679 0-75.603 24.134-91.925 58.687-54.008 2.456-97.299 46.819-97.299 101.422 0 30.542 13.793 57.674 35.158 76.368-48.823 6.672-94.716 22.603-133.32 46.645-17.754-13.69-39.359-21.123-61.942-21.123-8.046 0-14.557 6.512-14.557 14.558 0 20.084 6.155 39.742 17.51 56.528-19.519 22.784-33.3 48.16-40.465 74.471h-6.155c-32.116 0-58.229 26.108-58.229 58.22 0 32.394 16.419 61.96 43.91 79.116l101.647 63.326v75.89c0 8.046 6.511 14.557 14.552 14.557h58.219a14.568 14.568 0 0 0 13.023-8.046l17.228-34.455c64.418 17.768 137.088 17.768 201.502 0l17.229 34.455a14.566 14.566 0 0 0 13.022 8.046h58.22c8.045 0 14.556-6.51 14.556-14.557V607.04c55.607-40.908 87.334-97.324 87.334-155.815 0-21.21-4.25-41.654-11.804-61.056 9.864-11 19.995-25.328 27.734-43.944a125.988 125.988 0 0 0 27.735 3.109c8.046 0 14.552-6.511 14.552-14.552-.005-8.042-6.516-14.553-14.562-14.553a95.958 95.958 0 0 1-18.958-1.876c2.774-12.54 4.406-26.453 4.406-41.79 0-24.08-19.586-43.667-43.667-43.667-24.08 0-43.666 19.587-43.666 43.667 0 23.924 19.148 46.494 46.61 59.983-4.206 9.766-9.206 17.96-14.377 24.99-35.488-58.783-104.624-103.62-188.951-120.808 12.637-9.747 22.935-22.457 29.968-37.375 54.174-2.276 97.654-46.737 97.654-101.461C553.414 45.714 507.7 0 451.53 0Zm0 29.11c40.128 0 72.776 32.652 72.776 72.78 0 40.129-32.648 72.776-72.776 72.776-40.129 0-72.776-32.647-72.776-72.776 0-40.128 32.652-72.78 72.776-72.78zm0 29.109c-8.046 0-14.557 6.51-14.557 14.552v58.224c0 8.046 6.51 14.557 14.557 14.557 8.046 0 14.552-6.511 14.552-14.557V72.77c0-8.046-6.511-14.552-14.552-14.552zm-100.57 30.635c-.56 4.313-1.32 8.568-1.32 13.031 0 7.413.892 14.601 2.403 21.57-1.39 2.233-2.403 4.718-2.403 7.545v58.223c0 8.047 6.51 14.553 14.557 14.553 8.046 0 14.552-6.511 14.552-14.553v-16.252c12.428 12.72 28.243 21.872 45.855 26.736-13.207 20.279-35.684 33.184-60.412 33.184-40.128 0-72.78-32.652-72.78-72.78 0-35.358 25.376-64.823 59.544-71.25zm-1.32 173.144c144.461 0 262 84.887 262 189.226 0 51.713-28.783 100.136-81.067 136.352a14.58 14.58 0 0 0-6.267 11.97v70.007h-34.67l-18.66-37.316c-3.198-6.409-10.591-9.537-17.385-7.374-65.812 20.668-142.091 20.668-207.903 0-6.852-2.105-14.187 1.01-17.384 7.374l-18.66 37.316h-34.67v-69.409c0-5.034-2.589-9.693-6.853-12.354L59.609 520.184c-18.919-11.798-30.206-32.14-30.206-54.412 0-16.048 13.066-29.11 29.11-29.11h17.695a14.553 14.553 0 0 0 14.284-11.769c5.586-28.67 20.84-56.674 44.106-80.978 5.215-5.443 5.4-13.987.43-19.66-8.145-9.284-13.676-19.898-16.376-31.259 12.71 2.973 24.465 9.367 34.1 18.72 4.99 4.834 12.607 5.502 18.31 1.593 48.78-33.09 112.193-51.313 178.559-51.313zm276.559 0c8.032 0 14.552 6.526 14.552 14.557 0 11.502-1.082 22.015-2.943 31.595-16.176-9.196-26.172-21.887-26.172-31.595 0-8.031 6.526-14.557 14.558-14.557zM349.631 291.4c-37.978 0-75.958 4.995-106.422 14.99-7.647 2.501-11.799 10.732-9.299 18.365 2.53 7.646 10.79 11.857 18.369 9.298 55.153-18.11 139.558-18.11 194.703 0a14.42 14.42 0 0 0 4.537.721c6.126 0 11.814-3.879 13.831-10.02 2.5-7.631-1.647-15.858-9.293-18.363-30.47-9.996-68.448-14.991-106.428-14.991zM145.86 378.44c-16.048 0-29.11 13.067-29.11 29.11 0 16.048 13.067 29.11 29.11 29.11 16.048 0 29.11-13.062 29.11-29.11 0-16.048-13.062-29.11-29.11-29.11z" style="stroke-width:1.24762;fill:#fff"/></svg>